<svg xmlns="http://www.w3.org/2000/svg" width="134" height="94.645" viewBox="0 0 134 94.645">
  <g id="Group_5015" data-name="Group 5015" transform="translate(-128 -369.355)">
    <g id="Group_634" data-name="Group 634" transform="translate(1157.188 149.887)">
      <g id="Group_634-2" data-name="Group 634" transform="translate(-716.673 185.207)">
        <path id="Path_3211" data-name="Path 3211" d="M-192.639,46.7v55.2a2.833,2.833,0,0,0-.21.523,14.193,14.193,0,0,1-14.14,11.9q-45.593.051-91.187,0a14.215,14.215,0,0,1-14.33-14.469q-.02-25.552.012-51.1a15.147,15.147,0,0,1,.365-3.356,14.251,14.251,0,0,1,14.307-11.122q28.035-.026,56.07-.006,17.266,0,34.532.007a13.792,13.792,0,0,1,12.7,7.334A31.83,31.83,0,0,1-192.639,46.7Zm-7.942,18.937H-304.569v1.244q0,16.255,0,32.51c0,4.465,2.555,7.028,7.043,7.028q44.948.009,89.9,0c4.487,0,7.044-2.566,7.046-7.028q.006-16.255,0-32.51Zm-.037-11.451c0-2.225.1-4.328-.031-6.418a5.83,5.83,0,0,0-2.4-4.253,7.082,7.082,0,0,0-4.613-1.346q-44.93.019-89.861.01c-.351,0-.7.007-1.052.028-2.628.159-5.119,1.821-5.61,4.353a57.9,57.9,0,0,0-.513,7.626Z" fill="#f54748"/>
        <path id="Path_3212" data-name="Path 3212" d="M34.532,235.647c0-1.169-.043-2.339.008-3.506a6.607,6.607,0,0,1,6.6-6.4c2.183-.032,4.368-.026,6.551,0a6.659,6.659,0,0,1,6.749,6.515c.083,2.3.089,4.6,0,6.894a6.7,6.7,0,0,1-6.683,6.483q-3.274.064-6.551,0a6.667,6.667,0,0,1-6.667-6.6c-.038-1.129-.006-2.259-.006-3.389Z" transform="translate(-265.621 -146.546)" fill="#ec6b1f"/>
        <path id="Path_3213" data-name="Path 3213" d="M-230.512,280.491q5.147,0,10.293,0c1.605,0,2,.4,2.016,2,.011,1.091.022,2.182,0,3.272-.031,1.3-.509,1.795-1.766,1.8q-10.528.016-21.055,0c-1.206,0-1.672-.5-1.692-1.723-.018-1.129-.009-2.259,0-3.389.008-1.548.391-1.949,1.917-1.954C-237.374,280.484-233.943,280.491-230.512,280.491Z" transform="translate(-53.415 -188.467)" fill="#f54748"/>
      </g>
    </g>
    <g id="Group_635" data-name="Group 635" transform="translate(21)">
      <circle id="Ellipse_86" data-name="Ellipse 86" cx="30" cy="30" r="30" transform="translate(181 404)" fill="#fff"/>
      <path id="Path_3214" data-name="Path 3214" d="M-617.142,534.242A22.7,22.7,0,0,1-595.12,511.6a22.632,22.632,0,0,1,23.645,22.585,22.6,22.6,0,0,1-21.681,23.044A22.706,22.706,0,0,1-617.142,534.242Zm20.034,1.79c-1.235-1.211-2.379-2.352-3.547-3.47a3.007,3.007,0,0,0-3.471-.646,2.449,2.449,0,0,0-1.483,2.9,4.31,4.31,0,0,0,1.074,1.969c1.653,1.756,3.392,3.432,5.109,5.127a2.919,2.919,0,0,0,4.593-.017c1.275-1.266,2.542-2.541,3.813-3.812q3.512-3.513,7.023-7.028a3.167,3.167,0,0,0,.835-3.641,3,3,0,0,0-4.849-.478c-2.816,2.81-5.612,5.641-8.418,8.46C-596.642,535.612-596.871,535.811-597.108,536.032Z" transform="translate(804.838 -100.485)" fill="#4ab76c"/>
    </g>
  </g>
</svg>
