<svg xmlns="http://www.w3.org/2000/svg" width="91.368" height="91.429" viewBox="0 0 91.368 91.429">
  <g id="Group_5142" data-name="Group 5142" transform="translate(913.188 -215.512)">
    <path id="Path_3195" data-name="Path 3195" d="M-845.279,255.449c-1.677.23-3.359.4-5.018.7a26.77,26.77,0,0,0-10.678,4.538,27.814,27.814,0,0,0-10.938,14.945,27.2,27.2,0,0,0,1.958,21.255,1.378,1.378,0,0,1-.222,1.9c-2.151,2.277-4.238,4.615-6.377,6.9-1.55,1.658-3.131,1.668-4.709.024a178.989,178.989,0,0,1-15.92-18.9,109.009,109.009,0,0,1-11.93-20.171,47.548,47.548,0,0,1-3.726-12.411,32.663,32.663,0,0,1,4.61-22.148c5.21-8.525,12.748-14.051,22.554-15.868,13.64-2.527,25.014,1.8,33.8,12.561A32.356,32.356,0,0,1-844.96,245,27.754,27.754,0,0,1-845.279,255.449Zm-33.62-22.827A17.278,17.278,0,0,0-896.054,249.8a17.186,17.186,0,0,0,17.137,17.089,17.137,17.137,0,0,0,17.13-17.073A17.215,17.215,0,0,0-878.9,232.623Z" transform="translate(0 0)" fill="#f54748"/>
    <path id="Path_3196" data-name="Path 3196" d="M-617.142,534.242A22.7,22.7,0,0,1-595.12,511.6a22.632,22.632,0,0,1,23.645,22.585,22.6,22.6,0,0,1-21.681,23.044A22.706,22.706,0,0,1-617.142,534.242Zm20.034,1.79c-1.235-1.211-2.379-2.352-3.547-3.47a3.007,3.007,0,0,0-3.471-.646,2.449,2.449,0,0,0-1.483,2.9,4.31,4.31,0,0,0,1.074,1.969c1.653,1.756,3.392,3.432,5.109,5.127a2.919,2.919,0,0,0,4.593-.017c1.275-1.266,2.542-2.541,3.813-3.812q3.512-3.513,7.023-7.028a3.167,3.167,0,0,0,.835-3.641,3,3,0,0,0-4.849-.478c-2.816,2.81-5.612,5.641-8.418,8.46C-596.642,535.612-596.871,535.811-597.108,536.032Z" transform="translate(-250.35 -250.372)" fill="#4ab76c"/>
  </g>
</svg>
