<svg xmlns="http://www.w3.org/2000/svg" width="95.584" height="96.604" viewBox="0 0 95.584 96.604">
  <g id="Group_5031" data-name="Group 5031" transform="translate(928 22507)">
    <g id="Group_5028" data-name="Group 5028" transform="translate(-928 -22507)">
      <g id="Group_5027" data-name="Group 5027">
        <path id="Path_4236" data-name="Path 4236" d="M1684.138,92.237q25.741.019,51.483.029a7.99,7.99,0,0,0,1.354-.231c-2.374-1.194-5.015-1.924-6.9-3.968-2.026-1.36-3.141-3.409-4.178-5.518l-.086-.669-.3-.166-.108-.025.018-.1a15.7,15.7,0,0,1-.282-13,.287.287,0,0,1,.1-.294.226.226,0,0,1,.107-.294,11.037,11.037,0,0,1,2.427-4.332c3.524-4.363,8.219-6.377,13.727-6.7l.027-32.806c0-3.637-.089-7.277.033-10.911.115-3.439,1.346-6.358,4.415-8.325.844-.541,1.966-.609,2.57-1.53-.693-.024-1.386-.068-2.08-.068q-32.989-.005-65.978-.022c-5.815-.012-12.407,5.96-12.354,12.313.166,19.559.057,39.12.072,58.68,0,.667-.244,1.4.294,2,4.727,0,9.454.027,14.181-.017,1.082-.01,1.542.254,1.526,1.438C1684.137,82.554,1684.153,87.4,1684.138,92.237ZM1704.863,40.5c-8.217,0-16.433-.035-24.649.032-1.48.012-2.033-.31-1.991-1.9.038-1.439.289-2,1.9-1.993q24.562.094,49.124,0c1.615-.006,1.866.553,1.9,1.992.042,1.592-.511,1.915-1.991,1.9C1721.064,40.468,1712.963,40.5,1704.863,40.5Zm-.09,14.249q-12.324,0-24.648-.013c-.592,0-1.323.3-1.742-.4a2.229,2.229,0,0,1,1.838-3.409c16.316,0,32.633.018,48.949-.033,1.486,0,1.979.328,2,1.9.017,1.67-.562,2-2.092,1.983C1720.973,54.717,1712.873,54.753,1704.772,54.753Zm-5-28.5c-6.54,0-13.08-.033-19.62.027-1.363.013-2.024-.249-1.908-1.787.1-1.32-.133-2.459,1.9-2.447q19.793.113,39.586,0c1.7-.009,1.7.832,1.654,2.033-.04,1.15.264,2.244-1.649,2.214C1713.084,26.19,1706.427,26.256,1699.772,26.256Z" transform="translate(-1668.135 -3.217)" fill="#e1e1e3"/>
        <path id="Path_4237" data-name="Path 4237" d="M1639.762,3.439c-.6.921-1.727.989-2.571,1.53-3.069,1.967-4.3,4.886-4.415,8.325-.122,3.633-.031,7.274-.033,10.911,2.721.009,5.443-.007,8.164.033a10.88,10.88,0,0,0,11.164-10.868,9.448,9.448,0,0,0-9.7-9.993C1641.5,3.394,1640.631,3.417,1639.762,3.439Z" transform="translate(-1559.351 -3.263)" fill="#b0b1b3"/>
        <path id="Path_4241" data-name="Path 4241" d="M1868.865,229.194c.015-4.841,0-9.682.069-14.523.017-1.184-.444-1.448-1.526-1.438-4.726.044-9.453.018-14.18.017a3.441,3.441,0,0,0,.473.889Q1861.269,221.68,1868.865,229.194Z" transform="translate(-1852.862 -140.174)" fill="#b1b2b4"/>
        <path id="Path_4242" data-name="Path 4242" d="M1683.336,157.7l.574.143Z" transform="translate(-1608.783 -103.945)" fill="#e1e1e3"/>
        <rect id="Rectangle_683" data-name="Rectangle 683" width="13.875" height="10.021" transform="translate(69.915)" fill="#e1e1e3"/>
        <circle id="Ellipse_136" data-name="Ellipse 136" cx="10.406" cy="10.406" r="10.406" transform="translate(73.769)" fill="#b0b1b3"/>
        <rect id="Rectangle_684" data-name="Rectangle 684" width="10.021" height="3.854" transform="translate(73.769 16.958)" fill="#b0b1b3"/>
      </g>
    </g>
    <g id="Group_5029" data-name="Group 5029" transform="translate(-878.666 -22456.646)">
      <circle id="Ellipse_86" data-name="Ellipse 86" cx="23.125" cy="23.125" r="23.125" transform="translate(0 0)" fill="#fff"/>
      <path id="Path_3214" data-name="Path 3214" d="M-617.142,529.049A17.5,17.5,0,0,1-600.167,511.6,17.446,17.446,0,0,1-581.941,529a17.417,17.417,0,0,1-16.712,17.764A17.5,17.5,0,0,1-617.142,529.049Zm15.443,1.38c-.952-.933-1.834-1.813-2.734-2.675a2.318,2.318,0,0,0-2.675-.5,1.888,1.888,0,0,0-1.143,2.236,3.322,3.322,0,0,0,.828,1.518c1.274,1.353,2.614,2.645,3.938,3.952a2.25,2.25,0,0,0,3.541-.013c.983-.976,1.96-1.959,2.939-2.938q2.707-2.708,5.413-5.417a2.441,2.441,0,0,0,.644-2.807,2.312,2.312,0,0,0-3.738-.368c-2.171,2.166-4.326,4.348-6.489,6.522C-601.34,530.106-601.516,530.259-601.7,530.429Z" transform="translate(622.304 -506.112)" fill="#4ab76c"/>
    </g>
  </g>
</svg>
